<svg xmlns="http://www.w3.org/2000/svg" width="1600" height="900" viewBox="0 0 1600 900" role="img" aria-labelledby="title desc">
<title id="title">BizValidate Agentic Quality Platform architecture</title><desc id="desc">Workflow and orchestration architecture</desc>
<defs><linearGradient id="header" x1="0" x2="1"><stop stop-color="#071b38"/><stop offset="1" stop-color="#d75a12"/></linearGradient><filter id="shadow"><feDropShadow dx="0" dy="5" stdDeviation="8" flood-opacity=".13"/></filter><marker id="arrow" markerWidth="10" markerHeight="10" refX="9" refY="3" orient="auto"><path d="M0,0 L0,6 L9,3 z" fill="#173c78"/></marker><pattern id="grid" width="36" height="36" patternUnits="userSpaceOnUse"><path d="M36 0H0V36" fill="none" stroke="#d9e3f0" stroke-width="1"/></pattern></defs>
<rect width="1600" height="900" fill="#f5f8fc"/><rect width="1600" height="900" fill="url(#grid)" opacity=".35"/>
<rect width="1600" height="126" fill="url(#header)"/><text x="70" y="58" font-family="Inter,Arial,sans-serif" font-size="42" font-weight="800" fill="white">BIZVALIDATE AGENTIC QUALITY PLATFORM</text><text x="70" y="96" font-family="Inter,Arial,sans-serif" font-size="22" font-weight="600" fill="#ffd199">Workflow and orchestration architecture</text>
<rect x="1210" y="35" width="320" height="48" rx="24" fill="#ffffff" opacity=".98"/><text x="1370" y="65" text-anchor="middle" font-family="Inter,Arial,sans-serif" font-size="15" font-weight="800" fill="#d75a12">CODE-DERIVED ARCHITECTURE</text>
<g font-family="Inter,Arial,sans-serif"><text x="70" y="177" font-size="20" font-weight="800" fill="#d75a12">DETERMINISTIC AND AI-ASSISTED WORKFLOWS</text><rect x="72" y="220" width="1456" height="230" rx="22" fill="white" stroke="#b7cae4" filter="url(#shadow)"/><rect x="72" y="220" width="245" height="230" rx="22" fill="#d75a12"/><text x="194" y="309" text-anchor="middle" font-size="23" font-weight="850" fill="white">PRIMARY</text><text x="194" y="341" text-anchor="middle" font-size="17" font-weight="750" fill="white">EXECUTION LANE</text><rect x="350" y="292" width="190" height="78" rx="13" fill="#f4f8fd" stroke="#9db8da"/><text x="445" y="326" text-anchor="middle" font-size="16" font-weight="730" fill="#17314f"><tspan x="445" dy="0">Test configuration</tspan></text><line x1="544" y1="331" x2="569" y2="331" stroke="#173c78" stroke-width="3" marker-end="url(#arrow)"/><rect x="575" y="292" width="190" height="78" rx="13" fill="#f4f8fd" stroke="#9db8da"/><text x="670" y="326" text-anchor="middle" font-size="16" font-weight="730" fill="#17314f"><tspan x="670" dy="0">Encrypted credential</tspan><tspan x="670" dy="18">seam</tspan></text><line x1="769" y1="331" x2="794" y2="331" stroke="#173c78" stroke-width="3" marker-end="url(#arrow)"/><rect x="800" y="292" width="190" height="78" rx="13" fill="#f4f8fd" stroke="#9db8da"/><text x="895" y="326" text-anchor="middle" font-size="16" font-weight="730" fill="#17314f"><tspan x="895" dy="0">Playwright run</tspan></text><line x1="994" y1="331" x2="1019" y2="331" stroke="#173c78" stroke-width="3" marker-end="url(#arrow)"/><rect x="1025" y="292" width="190" height="78" rx="13" fill="#f4f8fd" stroke="#9db8da"/><text x="1120" y="326" text-anchor="middle" font-size="16" font-weight="730" fill="#17314f"><tspan x="1120" dy="0">DOM AX HAR discovery</tspan></text><line x1="1219" y1="331" x2="1244" y2="331" stroke="#173c78" stroke-width="3" marker-end="url(#arrow)"/><rect x="1250" y="292" width="190" height="78" rx="13" fill="#f4f8fd" stroke="#9db8da"/><text x="1345" y="326" text-anchor="middle" font-size="16" font-weight="730" fill="#17314f"><tspan x="1345" dy="0">LLM enrichment</tspan></text><rect x="72" y="480" width="1456" height="230" rx="22" fill="#eef5ff" stroke="#b7cae4" filter="url(#shadow)"/><rect x="72" y="480" width="245" height="230" rx="22" fill="#071b38"/><text x="194" y="569" text-anchor="middle" font-size="23" font-weight="850" fill="#ffd199">ASSISTED</text><text x="194" y="601" text-anchor="middle" font-size="17" font-weight="750" fill="white">INTELLIGENCE LANE</text><rect x="350" y="552" width="190" height="78" rx="13" fill="white" stroke="#d75a12"/><text x="445" y="586" text-anchor="middle" font-size="16" font-weight="730" fill="#17314f"><tspan x="445" dy="0">Element</tspan><tspan x="445" dy="18">classification</tspan></text><line x1="544" y1="591" x2="569" y2="591" stroke="#173c78" stroke-width="3" marker-end="url(#arrow)"/><rect x="575" y="552" width="190" height="78" rx="13" fill="white" stroke="#d75a12"/><text x="670" y="586" text-anchor="middle" font-size="16" font-weight="730" fill="#17314f"><tspan x="670" dy="0">Selector and test</tspan><tspan x="670" dy="18">proposals</tspan></text><line x1="769" y1="591" x2="794" y2="591" stroke="#173c78" stroke-width="3" marker-end="url(#arrow)"/><rect x="800" y="552" width="190" height="78" rx="13" fill="white" stroke="#d75a12"/><text x="895" y="586" text-anchor="middle" font-size="16" font-weight="730" fill="#17314f"><tspan x="895" dy="0">Failure analysis</tspan></text><line x1="994" y1="591" x2="1019" y2="591" stroke="#173c78" stroke-width="3" marker-end="url(#arrow)"/><rect x="1025" y="552" width="190" height="78" rx="13" fill="white" stroke="#d75a12"/><text x="1120" y="586" text-anchor="middle" font-size="16" font-weight="730" fill="#17314f"><tspan x="1120" dy="0">Prompt-selection</tspan><tspan x="1120" dy="18">experiments</tspan></text><line x1="1219" y1="591" x2="1244" y2="591" stroke="#173c78" stroke-width="3" marker-end="url(#arrow)"/><rect x="1250" y="552" width="190" height="78" rx="13" fill="white" stroke="#d75a12"/><text x="1345" y="586" text-anchor="middle" font-size="16" font-weight="730" fill="#17314f"><tspan x="1345" dy="0">Human review</tspan></text></g>
<rect x="58" y="828" width="1484" height="48" rx="12" fill="#071b38"/><text x="800" y="859" text-anchor="middle" font-family="Inter,Arial,sans-serif" font-size="19" font-weight="750" fill="white">Deterministic services own facts; assisted intelligence proposes; accountable people decide.</text>
</svg>