<svg xmlns="http://www.w3.org/2000/svg" width="1600" height="900" viewBox="0 0 1600 900" role="img" aria-labelledby="title desc">
<title id="title">Delivery Command Center architecture</title><desc id="desc">Trust boundaries, publication controls and risk paths</desc>
<defs><linearGradient id="header" x1="0" x2="1"><stop stop-color="#071b38"/><stop offset="1" stop-color="#087f8c"/></linearGradient><filter id="shadow"><feDropShadow dx="0" dy="5" stdDeviation="8" flood-opacity=".13"/></filter><marker id="arrow" markerWidth="10" markerHeight="10" refX="9" refY="3" orient="auto"><path d="M0,0 L0,6 L9,3 z" fill="#173c78"/></marker><pattern id="grid" width="36" height="36" patternUnits="userSpaceOnUse"><path d="M36 0H0V36" fill="none" stroke="#d9e3f0" stroke-width="1"/></pattern></defs>
<rect width="1600" height="900" fill="#f5f8fc"/><rect width="1600" height="900" fill="url(#grid)" opacity=".35"/>
<rect width="1600" height="126" fill="url(#header)"/><text x="70" y="58" font-family="Inter,Arial,sans-serif" font-size="42" font-weight="800" fill="white">DELIVERY COMMAND CENTER</text><text x="70" y="96" font-family="Inter,Arial,sans-serif" font-size="22" font-weight="600" fill="#7fe7dc">Trust boundaries, publication controls and risk paths</text>
<rect x="1210" y="35" width="320" height="48" rx="24" fill="#ffffff" opacity=".98"/><text x="1370" y="65" text-anchor="middle" font-family="Inter,Arial,sans-serif" font-size="15" font-weight="800" fill="#087f8c">SOURCE-BACKED PROTOTYPE</text>
<g font-family="Inter,Arial,sans-serif"><rect x="58" y="155" width="1040" height="137" rx="18" fill="white" stroke="#087f8c" stroke-width="2" filter="url(#shadow)"/><rect x="58" y="155" width="190" height="137" rx="18" fill="#087f8c"/><text x="153" y="208" text-anchor="middle" font-size="25" font-weight="850" fill="white">ZONE 0</text><text x="153" y="239" text-anchor="middle" font-size="13" font-weight="800" fill="white">USER / EXTERNAL INPUT</text><rect x="282" y="191" width="246" height="67" rx="12" fill="#f4f8fd" stroke="#a9bfdc"/><text x="405.0" y="219" text-anchor="middle" font-size="16" font-weight="700" fill="#17314f"><tspan x="405.0" dy="0">CRM and supplementary</tspan><tspan x="405.0" dy="18">sources</tspan></text><rect x="550" y="191" width="246" height="67" rx="12" fill="#f4f8fd" stroke="#a9bfdc"/><text x="673.0" y="219" text-anchor="middle" font-size="16" font-weight="700" fill="#17314f"><tspan x="673.0" dy="0">Dashboard signals</tspan></text><rect x="818" y="191" width="246" height="67" rx="12" fill="#f4f8fd" stroke="#a9bfdc"/><text x="941.0" y="219" text-anchor="middle" font-size="16" font-weight="700" fill="#17314f"><tspan x="941.0" dy="0">Evidence-backed result</tspan></text><rect x="58" y="308" width="1040" height="137" rx="18" fill="white" stroke="#087f8c" stroke-width="2" filter="url(#shadow)"/><rect x="58" y="308" width="190" height="137" rx="18" fill="#087f8c"/><text x="153" y="361" text-anchor="middle" font-size="25" font-weight="850" fill="white">ZONE 1</text><text x="153" y="392" text-anchor="middle" font-size="13" font-weight="800" fill="white">APPLICATION BOUNDARY</text><rect x="282" y="344" width="246" height="67" rx="12" fill="#f4f8fd" stroke="#a9bfdc"/><text x="405.0" y="372" text-anchor="middle" font-size="16" font-weight="700" fill="#17314f"><tspan x="405.0" dy="0">Portfolio service</tspan></text><rect x="550" y="344" width="246" height="67" rx="12" fill="#f4f8fd" stroke="#a9bfdc"/><text x="673.0" y="372" text-anchor="middle" font-size="16" font-weight="700" fill="#17314f"><tspan x="673.0" dy="0">Facet APIs</tspan></text><rect x="818" y="344" width="246" height="67" rx="12" fill="#f4f8fd" stroke="#a9bfdc"/><text x="941.0" y="372" text-anchor="middle" font-size="16" font-weight="700" fill="#17314f"><tspan x="941.0" dy="0">Signal engine</tspan></text><rect x="58" y="461" width="1040" height="137" rx="18" fill="white" stroke="#087f8c" stroke-width="2" filter="url(#shadow)"/><rect x="58" y="461" width="190" height="137" rx="18" fill="#087f8c"/><text x="153" y="514" text-anchor="middle" font-size="25" font-weight="850" fill="white">ZONE 2</text><text x="153" y="545" text-anchor="middle" font-size="13" font-weight="800" fill="white">AI / AUTOMATION BOUNDARY</text><rect x="282" y="497" width="246" height="67" rx="12" fill="#f4f8fd" stroke="#a9bfdc"/><text x="405.0" y="525" text-anchor="middle" font-size="16" font-weight="700" fill="#17314f"><tspan x="405.0" dy="0">Strict-JSON signal</tspan><tspan x="405.0" dy="18">generation</tspan></text><rect x="550" y="497" width="246" height="67" rx="12" fill="#f4f8fd" stroke="#a9bfdc"/><text x="673.0" y="525" text-anchor="middle" font-size="16" font-weight="700" fill="#17314f"><tspan x="673.0" dy="0">Grounded portfolio digest</tspan></text><rect x="818" y="497" width="246" height="67" rx="12" fill="#f4f8fd" stroke="#a9bfdc"/><text x="941.0" y="525" text-anchor="middle" font-size="16" font-weight="700" fill="#17314f"><tspan x="941.0" dy="0">Deterministic risk</tspan><tspan x="941.0" dy="18">fallback</tspan></text><rect x="58" y="614" width="1040" height="137" rx="18" fill="white" stroke="#087f8c" stroke-width="2" filter="url(#shadow)"/><rect x="58" y="614" width="190" height="137" rx="18" fill="#087f8c"/><text x="153" y="667" text-anchor="middle" font-size="25" font-weight="850" fill="white">ZONE 3</text><text x="153" y="698" text-anchor="middle" font-size="13" font-weight="800" fill="white">DATA / OPERATIONS BOUNDARY</text><rect x="282" y="650" width="246" height="67" rx="12" fill="#f4f8fd" stroke="#a9bfdc"/><text x="405.0" y="678" text-anchor="middle" font-size="16" font-weight="700" fill="#17314f"><tspan x="405.0" dy="0">Sanitized project metrics</tspan></text><rect x="550" y="650" width="246" height="67" rx="12" fill="#f4f8fd" stroke="#a9bfdc"/><text x="673.0" y="678" text-anchor="middle" font-size="16" font-weight="700" fill="#17314f"><tspan x="673.0" dy="0">Revenue and case</tspan><tspan x="673.0" dy="18">aggregates</tspan></text><rect x="818" y="650" width="246" height="67" rx="12" fill="#f4f8fd" stroke="#a9bfdc"/><text x="941.0" y="678" text-anchor="middle" font-size="16" font-weight="700" fill="#17314f"><tspan x="941.0" dy="0">Governance actions</tspan></text><rect x="1130" y="155" width="412" height="596" rx="20" fill="#071b38" filter="url(#shadow)"/><text x="1170" y="205" font-size="22" font-weight="850" fill="#7fe7dc">PUBLICATION &amp; RUNTIME CONTROLS</text><circle cx="1172" cy="264" r="16" fill="#087f8c"/><text x="1172" y="270" text-anchor="middle" font-size="14" font-weight="850" fill="white">1</text><text x="1204" y="257" text-anchor="start" font-size="17" font-weight="700" fill="white"><tspan x="1204" dy="0">Customer and project data excluded</tspan></text><circle cx="1172" cy="365" r="16" fill="#087f8c"/><text x="1172" y="371" text-anchor="middle" font-size="14" font-weight="850" fill="white">2</text><text x="1204" y="358" text-anchor="start" font-size="17" font-weight="700" fill="white"><tspan x="1204" dy="0">Destructive seed route excluded</tspan></text><circle cx="1172" cy="466" r="16" fill="#087f8c"/><text x="1172" y="472" text-anchor="middle" font-size="14" font-weight="850" fill="white">3</text><text x="1204" y="459" text-anchor="start" font-size="17" font-weight="700" fill="white"><tspan x="1204" dy="0">Validated structured outputs</tspan></text><circle cx="1172" cy="567" r="16" fill="#087f8c"/><text x="1172" y="573" text-anchor="middle" font-size="14" font-weight="850" fill="white">4</text><text x="1204" y="560" text-anchor="start" font-size="17" font-weight="700" fill="white"><tspan x="1204" dy="0">Authentication and restricted CORS</tspan><tspan x="1204" dy="20">required</tspan></text><rect x="1161" y="658" width="350" height="58" rx="12" fill="#087f8c"/><text x="1336" y="693" text-anchor="middle" font-size="17" font-weight="850" fill="white">SECRETS &amp; CUSTOMER DATA EXCLUDED</text></g>
<rect x="58" y="828" width="1484" height="48" rx="12" fill="#071b38"/><text x="800" y="859" text-anchor="middle" font-family="Inter,Arial,sans-serif" font-size="19" font-weight="750" fill="white">Technical evidence is published without credentials, customer datasets, model weights, or live deployment state.</text>
</svg>